<svg version="1.2" xmlns="http://www.w3.org/2000/svg" viewBox="0 0 1254 1254" width="1000" height="1000">
	<style>
		.s0 { opacity: 1;fill: #050807 } 
		.s1 { fill: #82cebc } 
	</style>
	<g id="Background">
		<path id="Path 0" class="s0" d="m0 627v627h1254v-1254h-1254z"/>
		<path id="Path 1" class="s1" d="m599.5 201.64c-2.75 0.22-12.09 1.29-20.75 2.38-8.66 1.09-21.49 3.16-28.5 4.6-7.01 1.44-19.05 4.34-26.75 6.45-7.7 2.11-18.95 5.61-25 7.77-6.05 2.17-14.38 5.29-18.5 6.94-4.13 1.65-12.68 5.44-19 8.43-6.32 2.99-16.9 8.51-23.5 12.26-6.6 3.75-16.73 9.98-22.5 13.85-5.77 3.86-14.77 10.26-20 14.22-5.23 3.96-14.45 11.47-20.5 16.69-6.05 5.22-16.4 15.07-23 21.91-6.6 6.83-15.82 17.04-20.5 22.68-4.68 5.65-12.42 15.76-17.21 22.48-4.78 6.71-11.84 17.38-15.68 23.7-3.84 6.33-10.29 18.02-14.34 26-4.04 7.98-9.52 19.9-12.17 26.5-2.65 6.6-6.52 16.95-8.6 23-2.07 6.05-4.91 15.05-6.3 20-1.4 4.95-3.23 11.93-4.09 15.5-0.85 3.58-2.2 9.43-3 13-0.8 3.58-2.37 12.58-3.49 20-1.13 7.42-2.57 19.8-3.21 27.5-0.74 8.91-0.96 24.54-0.6 43 0.35 17.72 1.19 33.48 2.15 40.5 0.88 6.33 2.51 16.67 3.64 23 1.14 6.33 3.84 18.48 6.01 27 2.17 8.52 5.57 20.23 7.55 26 1.99 5.77 5.38 15 7.54 20.5 2.17 5.5 5.78 14.05 8.03 19 2.25 4.95 7.22 14.85 11.06 22 3.83 7.15 9.71 17.27 13.06 22.5 3.36 5.23 8.8 13.33 12.1 18 3.3 4.67 9.44 12.77 13.65 18 4.2 5.23 13.03 15.35 19.62 22.5 6.59 7.15 18.01 18.27 25.38 24.71 7.37 6.44 17.67 14.93 22.9 18.87 5.23 3.93 14 10.18 19.5 13.87 5.5 3.69 14.05 9.1 19 12.01 4.95 2.91 14.63 8.11 21.5 11.55 6.88 3.45 18.13 8.63 25 11.52 6.88 2.89 18.46 7.22 25.75 9.61 7.29 2.4 19.44 5.92 27 7.82 7.56 1.91 19.83 4.57 27.25 5.91 7.42 1.35 18.45 3.05 24.5 3.79 7.11 0.86 22.33 1.34 43 1.33 25.23 0 34.85-0.38 45.5-1.81 7.42-1 20.25-3.12 28.5-4.73 8.25-1.6 21.41-4.72 29.25-6.93 7.84-2.21 19.99-6.1 27-8.64 7.01-2.54 17.48-6.64 23.25-9.11 5.77-2.48 15-6.74 20.5-9.48 5.5-2.74 16.75-9 25-13.92 8.25-4.91 19.05-11.83 24-15.38 4.95-3.55 13.73-10.17 19.5-14.7 5.77-4.54 19.07-16.81 29.55-27.27 10.47-10.46 23.54-24.64 29.04-31.52 5.5-6.87 13.86-18.35 18.58-25.5 4.72-7.15 11.17-17.5 14.32-23 3.16-5.5 7.67-13.83 10.02-18.5 2.34-4.67 6.82-14.58 9.95-22 3.12-7.42 8.09-20.7 11.04-29.5 2.94-8.8 6.93-22.52 8.86-30.5 1.92-7.98 4.42-20.12 5.54-27 1.12-6.87 2.62-16.55 3.32-21.5 0.87-6.11 1.27-21.54 1.25-48-0.02-32.04-0.35-41.23-1.82-51.5-0.98-6.87-2.85-18.12-4.14-25-1.29-6.87-3.32-16.32-4.49-21-1.18-4.67-3.5-13-5.16-18.5-1.66-5.5-4.62-14.5-6.57-20-1.96-5.5-5.57-14.73-8.04-20.5-2.46-5.77-7.07-15.67-10.24-22-3.17-6.32-8.36-16-11.52-21.5-3.16-5.5-9.57-15.62-14.24-22.5-4.68-6.87-12.03-17-16.36-22.5-4.32-5.5-12.47-15.05-18.12-21.23-5.65-6.17-15.44-16-21.77-21.83-6.33-5.84-15.77-14.06-21-18.27-5.23-4.22-14.23-10.97-20-15.02-5.77-4.04-16.46-10.91-23.75-15.25-7.29-4.35-18.09-10.32-24-13.29-5.91-2.96-15.48-7.4-21.25-9.87-5.77-2.47-17.02-6.75-25-9.51-7.98-2.76-20.58-6.62-28-8.58-7.42-1.96-18-4.47-23.5-5.58-5.5-1.1-16.98-2.96-25.5-4.11-11.93-1.62-22.06-2.17-44-2.41-15.67-0.18-30.75-0.14-33.5 0.09z"/>
		<path id="Path 2" class="s0" d="m599 223.66c-1.92 0.19-8 0.83-13.5 1.42-5.5 0.59-14.95 1.92-21 2.97-6.05 1.04-15.84 3.03-21.75 4.42-5.91 1.39-17.27 4.56-25.25 7.03-7.98 2.47-19.11 6.33-24.75 8.58-5.64 2.24-16.1 6.88-23.25 10.31-7.15 3.43-17.95 9.08-24 12.56-6.05 3.47-16.18 9.83-22.5 14.12-6.32 4.3-16.45 11.75-22.5 16.57-6.05 4.82-16.8 14.41-23.9 21.31-7.09 6.9-16.71 16.82-21.37 22.05-4.66 5.23-12.22 14.45-16.79 20.5-4.57 6.05-12.19 17.07-16.93 24.5-4.74 7.43-13.07 22.5-18.5 33.5-5.44 11-12.44 26.75-15.56 35-3.13 8.25-7.62 21.75-9.98 30-2.36 8.25-5.45 20.85-6.86 28-1.41 7.15-3.36 18.4-4.34 25-1.46 9.9-1.77 18.83-1.76 51 0 32.47 0.3 41.01 1.81 51 0.99 6.6 3.13 18.3 4.76 26 1.63 7.7 4.56 19.4 6.5 26 1.95 6.6 5.14 16.5 7.08 22 1.95 5.5 5.57 14.73 8.05 20.5 2.48 5.77 7.36 16.13 10.84 23 3.48 6.88 9.2 17.23 12.71 23 3.51 5.77 9.22 14.55 12.68 19.5 3.47 4.95 10.44 14.17 15.5 20.5 5.06 6.33 14.35 16.86 20.63 23.41 6.29 6.55 16.61 16.38 22.93 21.83 6.32 5.46 15.55 12.98 20.5 16.73 4.95 3.74 15.75 11.16 24 16.49 8.25 5.33 22.43 13.43 31.5 18 9.07 4.57 22.91 10.84 30.75 13.93 7.84 3.08 20.89 7.59 29 10.01 8.11 2.43 21.5 5.78 29.75 7.46 8.25 1.68 19.95 3.72 26 4.55 6.05 0.82 19.77 2.01 30.5 2.64 10.73 0.64 25.13 0.86 32 0.51 6.88-0.36 17.45-1.1 23.5-1.66 6.05-0.55 16.63-1.9 23.5-2.99 6.88-1.09 18.8-3.51 26.5-5.37 7.7-1.85 18.5-4.81 24-6.57 5.5-1.76 16.3-5.68 24-8.71 7.7-3.03 20.52-8.78 28.5-12.78 7.98-4 20.35-10.82 27.5-15.16 7.15-4.33 17.5-11.08 23-14.99 5.5-3.91 15.74-11.88 22.75-17.72 7.01-5.83 12.98-11.06 13.25-11.61 0.27-0.55-5.24 1.87-12.25 5.39-7.01 3.51-18.15 8.65-24.75 11.43-6.6 2.77-18.52 7.27-26.5 9.98-7.98 2.72-19.45 6.34-25.5 8.04-6.05 1.7-17.08 4.45-24.5 6.1-7.42 1.64-20.02 4.13-28 5.53-7.98 1.4-22.38 3.43-32 4.51-9.63 1.09-26.73 2.49-38 3.12-12.07 0.67-29.95 0.88-43.5 0.51-12.65-0.35-27.73-1.07-33.5-1.59-5.77-0.52-14.1-1.9-18.5-3.07-4.4-1.17-10.7-3.35-14-4.85-3.3-1.49-9.26-4.83-13.25-7.41-3.99-2.58-10.89-8.18-15.34-12.44-4.44-4.26-10.84-11.8-14.2-16.75-3.36-4.95-7.82-12.71-9.91-17.25-2.09-4.54-4.94-12.19-6.34-17-1.39-4.81-3.19-12.8-3.99-17.75-1.22-7.53-1.46-28.87-1.45-131 0.01-117.61 0.08-122.34 1.98-131.5 1.1-5.26 3.58-12.85 5.57-17 1.97-4.12 5.52-10.2 7.87-13.5 2.36-3.3 7.16-8.71 10.68-12.03 3.51-3.31 9.53-7.92 13.38-10.24 3.85-2.33 11.27-5.65 16.5-7.39l9.5-3.17c62-1.16 85.85-1.99 93-2.59 7.15-0.61 17.5-1.57 23-2.13 5.5-0.57 15.17-1.71 21.5-2.55 6.33-0.83 18.02-2.6 26-3.93 7.98-1.33 18.77-3.3 24-4.37 5.23-1.07 13.55-2.92 18.5-4.12 4.95-1.19 14.62-3.71 21.5-5.61 6.87-1.89 18.8-5.5 26.5-8.03 7.7-2.52 19.63-6.82 26.5-9.55 6.87-2.73 17.45-7.33 23.5-10.21 6.05-2.89 15.73-8.07 21.5-11.52 5.77-3.44 14.3-9.26 18.95-12.91 4.65-3.66 10.69-9.35 13.42-12.65 2.73-3.3 5.84-8.02 6.91-10.5 1.07-2.48 2.15-6.52 2.41-9 0.45-4.36 0.19-4.85-8.23-16-4.77-6.32-12.4-15.77-16.95-21-4.55-5.23-14.07-15.12-21.17-22-7.1-6.87-17.84-16.47-23.87-21.32-6.04-4.85-17.95-13.46-26.47-19.13-8.52-5.67-20.9-13.24-27.5-16.82-6.6-3.58-16.73-8.64-22.5-11.24-5.77-2.6-15.45-6.64-21.5-8.98-6.05-2.33-15.5-5.63-21-7.33-5.5-1.69-16.52-4.68-24.5-6.64-7.98-1.95-20.58-4.44-28-5.54-7.42-1.1-18.45-2.45-24.5-3-6.05-0.55-21.35-0.93-34-0.84-12.65 0.09-24.58 0.31-26.5 0.5zm338.81 186.59c-1.44 2.34-6.61 8.07-11.49 12.75-4.88 4.68-14.48 12.25-21.34 16.84-6.87 4.58-20.13 12.1-29.48 16.71-9.35 4.61-22.85 10.7-30 13.54-7.15 2.83-18.85 7.09-26 9.46-7.15 2.37-18.85 5.95-26 7.97-7.15 2.01-18.4 4.94-25 6.51-6.6 1.57-17.85 3.99-25 5.38-7.15 1.39-18.4 3.42-25 4.51-6.6 1.09-19.42 2.9-28.5 4.03-9.08 1.12-24.83 2.73-35 3.58-10.17 0.84-34.25 1.77-53.5 2.06-25.03 0.38-36.99 0.94-42 1.99-4.18 0.87-10.02 3.14-14.5 5.63-4.55 2.53-10.01 6.75-13.88 10.73-4.4 4.53-7.57 9.04-10.23 14.56-2.12 4.4-4.56 11.38-5.42 15.5-1.11 5.32-1.47 11.72-1.26 22l0.29 14.5c24.8 2.56 46.4 3.86 64 4.54 25.01 0.97 37.57 0.98 57.5 0.05 14.02-0.65 32.25-1.85 40.5-2.65 8.25-0.8 20.17-2.15 26.5-2.99 6.33-0.84 19.38-2.85 29-4.47 9.63-1.61 23.8-4.31 31.5-6 7.7-1.68 21.2-4.88 30-7.1 8.8-2.22 25.9-7.34 38-11.38 12.1-4.04 28.52-10.12 36.5-13.52 7.98-3.4 20.58-9.25 28-13.01 7.42-3.76 18.67-10.14 25-14.18 6.33-4.03 15.33-10.23 20-13.78 4.67-3.55 12.55-10.34 17.5-15.11 4.95-4.76 10.28-10.4 11.84-12.53 2.72-3.71 2.79-4.08 1.67-8.87-0.64-2.75-3.92-12.43-7.3-21.5-3.37-9.07-9.86-24.04-14.42-33.25-4.56-9.21-8.64-16.75-9.08-16.75-0.43 0-1.96 1.91-3.4 4.25zm26.69 98.22c-6.93 7.11-16.65 15.73-23 20.41-6.05 4.45-16.63 11.45-23.5 15.55-6.88 4.1-19.92 11.03-29 15.39-9.08 4.35-21.9 10.06-28.5 12.68-6.6 2.62-20.1 7.45-30 10.73-9.9 3.28-27.56 8.39-39.25 11.37-11.69 2.97-27.89 6.73-36 8.36-8.11 1.63-21.95 4.08-30.75 5.45-8.8 1.37-24.1 3.39-34 4.49-9.9 1.1-24.98 2.56-33.5 3.25-8.88 0.72-30.87 1.22-51.5 1.18-24.47-0.05-42.57-0.61-56.5-1.76-11.27-0.93-23.59-2-27.37-2.38-4.3-0.43-7.02-0.32-7.26 0.31-0.22 0.55-0.27 20.13-0.13 43.5l0.26 42.5c13.95 1.84 25.65 3.13 35 4.05 10.96 1.07 30.68 1.84 55.5 2.16 30.18 0.39 43.36 0.14 61-1.17 12.37-0.92 31.05-2.77 41.5-4.12 10.45-1.35 26.88-3.82 36.5-5.49 9.62-1.68 23.58-4.39 31-6.03 7.42-1.64 20.92-5.01 30-7.48 9.08-2.46 25.05-7.36 35.5-10.88 10.45-3.53 25.08-8.96 32.5-12.07 7.42-3.12 19.8-8.83 27.5-12.69 7.7-3.85 16.02-8.17 18.5-9.58 2.48-1.42 8.77-5.27 14-8.56 5.23-3.29 14-9.36 19.5-13.5 5.5-4.13 13.1-10.25 16.89-13.58 3.8-3.33 10.02-9.66 13.84-14.06l6.95-8c-1.04-15.5-2.18-26.08-3.21-33.5-1.02-7.42-3.46-21.26-5.42-30.75-1.95-9.49-3.55-17.48-3.55-17.75 0-0.27-0.34-0.46-0.75-0.42-0.41 0.04-6.15 5.62-12.75 12.39zm12.99 98.97c-6.6 6.63-16.5 15.43-22 19.54-5.49 4.11-15.62 11.02-22.49 15.34-6.88 4.33-21.95 12.51-33.5 18.18-11.55 5.68-28.65 13.24-38 16.81-9.35 3.57-22.85 8.29-30 10.49-7.15 2.2-19.75 5.82-28 8.04-8.25 2.21-22.2 5.61-31 7.55-8.8 1.94-22.75 4.66-31 6.05-8.25 1.39-23.77 3.62-34.5 4.96-10.73 1.34-26.7 3.03-35.5 3.76-9.84 0.82-31.77 1.33-57 1.33-25.66 0.01-46.61-0.48-56-1.3-8.25-0.73-21.44-2.08-29.32-3-7.88-0.93-14.53-1.46-14.78-1.19-0.25 0.27-0.44 19.29-0.43 42.25l0.03 41.75c3.49 0.76 9.9 1.65 16.5 2.48 6.6 0.82 18.98 2.21 27.5 3.08 9.12 0.93 30.11 1.82 51 2.15 22.42 0.35 42.68 0.12 55-0.62 10.73-0.65 27.37-2.07 37-3.16 9.62-1.08 21.77-2.64 27-3.47 5.23-0.82 15.8-2.65 23.5-4.07 7.7-1.41 19.85-3.91 27-5.55 7.15-1.64 19.3-4.73 27-6.85 7.7-2.13 21.87-6.57 31.5-9.86 9.62-3.29 23.8-8.66 31.5-11.91 7.7-3.26 21.65-9.78 31-14.5 9.35-4.71 23.75-13.06 32-18.55 8.25-5.49 18.6-12.91 23-16.48 4.4-3.56 11.86-10.47 16.58-15.34l8.59-8.85c3.44-16.27 5.33-26.17 6.43-32.5 1.1-6.33 2.64-19.83 3.43-30 0.78-10.17 1.44-20.86 1.45-23.75 0.01-2.89-0.32-5.17-0.73-5.06-0.41 0.1-6.15 5.61-12.76 12.25zm-12.5 108.85c-3.04 2.86-10.69 9.1-17 13.85-6.32 4.75-18.01 12.59-25.99 17.43-7.98 4.84-21.7 12.28-30.5 16.54-8.8 4.25-23.42 10.65-32.5 14.21-9.08 3.56-23.02 8.54-31 11.06-7.98 2.52-20.35 6.17-27.5 8.12-7.15 1.95-22.67 5.53-34.5 7.95-11.83 2.43-29.38 5.59-39 7.02-9.63 1.44-23.58 3.24-31 4.02-7.42 0.77-22.27 1.94-33 2.59-12.12 0.74-32.18 0.98-53 0.64-18.42-0.29-41.38-1.27-51-2.16-9.63-0.9-23.35-2.51-30.5-3.58-7.15-1.07-13.13-1.84-13.28-1.71-0.15 0.13 0.22 3.15 0.84 6.73 0.61 3.58 2.36 10.1 3.88 14.5 1.53 4.4 4.02 10.48 5.55 13.5 1.53 3.02 4.15 7.52 5.83 10 1.68 2.48 4.88 6.69 7.12 9.38 2.23 2.68 7.21 7.33 11.06 10.34 3.85 3.01 10.6 7.22 15 9.36 4.4 2.15 10.7 4.59 14 5.44 3.3 0.84 11.4 1.96 18 2.48 6.6 0.53 24.94 0.96 40.75 0.98 16.86 0.01 36.5-0.6 47.5-1.49 10.31-0.82 24.15-2.21 30.75-3.08 6.6-0.87 20.1-3.11 30-4.97 9.9-1.86 26.33-5.62 36.5-8.35 10.17-2.73 24.58-7.08 32-9.67 7.42-2.58 18.67-6.91 25-9.62 6.33-2.7 17.58-8.07 25-11.94 7.42-3.86 19.35-10.91 26.5-15.66 7.15-4.76 16.83-11.84 21.5-15.74 4.67-3.91 11.42-10.27 15-14.15 3.58-3.88 9.4-11.95 12.94-17.93 3.54-5.98 9.91-18.08 14.15-26.88 4.24-8.8 10.01-22.19 12.81-29.75 2.81-7.56 5.1-13.98 5.1-14.25 0-0.27-0.34-0.48-0.75-0.46-0.41 0.02-3.23 2.38-6.26 5.25z"/>
	</g>
</svg>